<mxfile host="box.my-lab.work" modified="2024-03-03T17:09:04.352Z" agent="Mozilla/5.0 (Windows NT 10.0; Win64; x64; rv:123.0) Gecko/20100101 Firefox/123.0" etag="IGgycxHs9TEaheTJdd3R" version="22.0.6" type="device">
  <diagram id="C5RBs43oDa-KdzZeNtuy" name="Page-1">
    <mxGraphModel dx="1189" dy="1141" grid="1" gridSize="10" guides="1" tooltips="1" connect="1" arrows="1" fold="1" page="1" pageScale="1" pageWidth="827" pageHeight="1169" math="0" shadow="0">
      <root>
        <mxCell id="WIyWlLk6GJQsqaUBKTNV-0" />
        <mxCell id="WIyWlLk6GJQsqaUBKTNV-1" parent="WIyWlLk6GJQsqaUBKTNV-0" />
        <mxCell id="It4BeM9rfLrrCqX1omKw-20" value="" style="edgeStyle=orthogonalEdgeStyle;rounded=0;orthogonalLoop=1;jettySize=auto;html=1;" edge="1" parent="WIyWlLk6GJQsqaUBKTNV-1" source="ZuKRyrKU5qncucfV8hZS-32" target="It4BeM9rfLrrCqX1omKw-0">
          <mxGeometry relative="1" as="geometry" />
        </mxCell>
        <mxCell id="ZuKRyrKU5qncucfV8hZS-32" value="&lt;font style=&quot;font-size: 12px;&quot;&gt;Inicio&lt;/font&gt;" style="ellipse;whiteSpace=wrap;html=1;aspect=fixed;" parent="WIyWlLk6GJQsqaUBKTNV-1" vertex="1">
          <mxGeometry x="76.44" y="22.88" width="63.12" height="63.12" as="geometry" />
        </mxCell>
        <mxCell id="It4BeM9rfLrrCqX1omKw-7" value="" style="edgeStyle=orthogonalEdgeStyle;rounded=0;orthogonalLoop=1;jettySize=auto;html=1;" edge="1" parent="WIyWlLk6GJQsqaUBKTNV-1" source="It4BeM9rfLrrCqX1omKw-0" target="It4BeM9rfLrrCqX1omKw-6">
          <mxGeometry relative="1" as="geometry" />
        </mxCell>
        <mxCell id="It4BeM9rfLrrCqX1omKw-43" style="edgeStyle=orthogonalEdgeStyle;rounded=0;orthogonalLoop=1;jettySize=auto;html=1;exitX=1;exitY=0.5;exitDx=0;exitDy=0;entryX=0;entryY=0.5;entryDx=0;entryDy=0;" edge="1" parent="WIyWlLk6GJQsqaUBKTNV-1" source="It4BeM9rfLrrCqX1omKw-0" target="It4BeM9rfLrrCqX1omKw-3">
          <mxGeometry relative="1" as="geometry" />
        </mxCell>
        <mxCell id="It4BeM9rfLrrCqX1omKw-44" style="edgeStyle=orthogonalEdgeStyle;rounded=0;orthogonalLoop=1;jettySize=auto;html=1;exitX=1;exitY=0.5;exitDx=0;exitDy=0;entryX=0;entryY=0.5;entryDx=0;entryDy=0;" edge="1" parent="WIyWlLk6GJQsqaUBKTNV-1" source="It4BeM9rfLrrCqX1omKw-0" target="It4BeM9rfLrrCqX1omKw-8">
          <mxGeometry relative="1" as="geometry" />
        </mxCell>
        <mxCell id="It4BeM9rfLrrCqX1omKw-45" style="edgeStyle=orthogonalEdgeStyle;rounded=0;orthogonalLoop=1;jettySize=auto;html=1;exitX=1;exitY=0.5;exitDx=0;exitDy=0;entryX=0;entryY=0.5;entryDx=0;entryDy=0;" edge="1" parent="WIyWlLk6GJQsqaUBKTNV-1" source="It4BeM9rfLrrCqX1omKw-0" target="It4BeM9rfLrrCqX1omKw-12">
          <mxGeometry relative="1" as="geometry" />
        </mxCell>
        <mxCell id="It4BeM9rfLrrCqX1omKw-0" value="Preparación de los datos" style="rounded=1;whiteSpace=wrap;html=1;" vertex="1" parent="WIyWlLk6GJQsqaUBKTNV-1">
          <mxGeometry x="33" y="116" width="150" height="60" as="geometry" />
        </mxCell>
        <mxCell id="It4BeM9rfLrrCqX1omKw-3" value="Procesamiento de fuentes de datos" style="rounded=1;whiteSpace=wrap;html=1;" vertex="1" parent="WIyWlLk6GJQsqaUBKTNV-1">
          <mxGeometry x="227" y="86" width="186" height="30" as="geometry" />
        </mxCell>
        <mxCell id="It4BeM9rfLrrCqX1omKw-5" value="Detección de tópicos" style="rounded=1;whiteSpace=wrap;html=1;" vertex="1" parent="WIyWlLk6GJQsqaUBKTNV-1">
          <mxGeometry x="227" y="220.5" width="186" height="41" as="geometry" />
        </mxCell>
        <mxCell id="It4BeM9rfLrrCqX1omKw-40" style="edgeStyle=orthogonalEdgeStyle;rounded=0;orthogonalLoop=1;jettySize=auto;html=1;exitX=1;exitY=0.5;exitDx=0;exitDy=0;entryX=0;entryY=0.5;entryDx=0;entryDy=0;" edge="1" parent="WIyWlLk6GJQsqaUBKTNV-1" source="It4BeM9rfLrrCqX1omKw-6" target="It4BeM9rfLrrCqX1omKw-5">
          <mxGeometry relative="1" as="geometry" />
        </mxCell>
        <mxCell id="It4BeM9rfLrrCqX1omKw-41" style="edgeStyle=orthogonalEdgeStyle;rounded=0;orthogonalLoop=1;jettySize=auto;html=1;exitX=1;exitY=0.5;exitDx=0;exitDy=0;entryX=0;entryY=0.5;entryDx=0;entryDy=0;" edge="1" parent="WIyWlLk6GJQsqaUBKTNV-1" source="It4BeM9rfLrrCqX1omKw-6" target="It4BeM9rfLrrCqX1omKw-9">
          <mxGeometry relative="1" as="geometry" />
        </mxCell>
        <mxCell id="It4BeM9rfLrrCqX1omKw-55" value="" style="edgeStyle=orthogonalEdgeStyle;rounded=0;orthogonalLoop=1;jettySize=auto;html=1;" edge="1" parent="WIyWlLk6GJQsqaUBKTNV-1" source="It4BeM9rfLrrCqX1omKw-6" target="It4BeM9rfLrrCqX1omKw-10">
          <mxGeometry relative="1" as="geometry" />
        </mxCell>
        <mxCell id="It4BeM9rfLrrCqX1omKw-6" value="Modelación" style="whiteSpace=wrap;html=1;rounded=1;" vertex="1" parent="WIyWlLk6GJQsqaUBKTNV-1">
          <mxGeometry x="33" y="241" width="150" height="60" as="geometry" />
        </mxCell>
        <mxCell id="It4BeM9rfLrrCqX1omKw-8" value="Análisis exploratorio y limpieza" style="rounded=1;whiteSpace=wrap;html=1;" vertex="1" parent="WIyWlLk6GJQsqaUBKTNV-1">
          <mxGeometry x="227" y="131" width="186" height="30" as="geometry" />
        </mxCell>
        <mxCell id="It4BeM9rfLrrCqX1omKw-9" value="Análisis de sentimientos" style="rounded=1;whiteSpace=wrap;html=1;" vertex="1" parent="WIyWlLk6GJQsqaUBKTNV-1">
          <mxGeometry x="227" y="280.5" width="186" height="41" as="geometry" />
        </mxCell>
        <mxCell id="It4BeM9rfLrrCqX1omKw-35" style="edgeStyle=orthogonalEdgeStyle;rounded=0;orthogonalLoop=1;jettySize=auto;html=1;exitX=0.5;exitY=1;exitDx=0;exitDy=0;entryX=0.5;entryY=0;entryDx=0;entryDy=0;" edge="1" parent="WIyWlLk6GJQsqaUBKTNV-1" source="It4BeM9rfLrrCqX1omKw-10" target="It4BeM9rfLrrCqX1omKw-19">
          <mxGeometry relative="1" as="geometry" />
        </mxCell>
        <mxCell id="It4BeM9rfLrrCqX1omKw-38" style="edgeStyle=orthogonalEdgeStyle;rounded=0;orthogonalLoop=1;jettySize=auto;html=1;exitX=1;exitY=0.5;exitDx=0;exitDy=0;entryX=0;entryY=0.5;entryDx=0;entryDy=0;" edge="1" parent="WIyWlLk6GJQsqaUBKTNV-1" source="It4BeM9rfLrrCqX1omKw-10" target="It4BeM9rfLrrCqX1omKw-16">
          <mxGeometry relative="1" as="geometry" />
        </mxCell>
        <mxCell id="It4BeM9rfLrrCqX1omKw-39" style="edgeStyle=orthogonalEdgeStyle;rounded=0;orthogonalLoop=1;jettySize=auto;html=1;exitX=1;exitY=0.5;exitDx=0;exitDy=0;entryX=0;entryY=0.5;entryDx=0;entryDy=0;" edge="1" parent="WIyWlLk6GJQsqaUBKTNV-1" source="It4BeM9rfLrrCqX1omKw-10" target="It4BeM9rfLrrCqX1omKw-17">
          <mxGeometry relative="1" as="geometry" />
        </mxCell>
        <mxCell id="It4BeM9rfLrrCqX1omKw-10" value="Evaluación de los modelos" style="whiteSpace=wrap;html=1;rounded=1;" vertex="1" parent="WIyWlLk6GJQsqaUBKTNV-1">
          <mxGeometry x="33" y="385" width="150" height="60" as="geometry" />
        </mxCell>
        <mxCell id="It4BeM9rfLrrCqX1omKw-12" value="Normalización de texto" style="rounded=1;whiteSpace=wrap;html=1;" vertex="1" parent="WIyWlLk6GJQsqaUBKTNV-1">
          <mxGeometry x="227" y="175" width="186" height="30" as="geometry" />
        </mxCell>
        <mxCell id="It4BeM9rfLrrCqX1omKw-16" value="Detección de tópicos" style="rounded=1;whiteSpace=wrap;html=1;" vertex="1" parent="WIyWlLk6GJQsqaUBKTNV-1">
          <mxGeometry x="227" y="364.5" width="186" height="41" as="geometry" />
        </mxCell>
        <mxCell id="It4BeM9rfLrrCqX1omKw-17" value="Análisis de sentimientos" style="rounded=1;whiteSpace=wrap;html=1;" vertex="1" parent="WIyWlLk6GJQsqaUBKTNV-1">
          <mxGeometry x="227" y="424.5" width="186" height="41" as="geometry" />
        </mxCell>
        <mxCell id="It4BeM9rfLrrCqX1omKw-46" style="edgeStyle=orthogonalEdgeStyle;rounded=0;orthogonalLoop=1;jettySize=auto;html=1;exitX=1;exitY=0.5;exitDx=0;exitDy=0;entryX=0;entryY=0.5;entryDx=0;entryDy=0;" edge="1" parent="WIyWlLk6GJQsqaUBKTNV-1" source="It4BeM9rfLrrCqX1omKw-18" target="It4BeM9rfLrrCqX1omKw-29">
          <mxGeometry relative="1" as="geometry" />
        </mxCell>
        <mxCell id="It4BeM9rfLrrCqX1omKw-47" style="edgeStyle=orthogonalEdgeStyle;rounded=0;orthogonalLoop=1;jettySize=auto;html=1;exitX=1;exitY=0.5;exitDx=0;exitDy=0;entryX=0;entryY=0.5;entryDx=0;entryDy=0;" edge="1" parent="WIyWlLk6GJQsqaUBKTNV-1" source="It4BeM9rfLrrCqX1omKw-18" target="It4BeM9rfLrrCqX1omKw-30">
          <mxGeometry relative="1" as="geometry" />
        </mxCell>
        <mxCell id="It4BeM9rfLrrCqX1omKw-48" style="edgeStyle=orthogonalEdgeStyle;rounded=0;orthogonalLoop=1;jettySize=auto;html=1;exitX=1;exitY=0.5;exitDx=0;exitDy=0;entryX=0;entryY=0.5;entryDx=0;entryDy=0;" edge="1" parent="WIyWlLk6GJQsqaUBKTNV-1" source="It4BeM9rfLrrCqX1omKw-18" target="It4BeM9rfLrrCqX1omKw-31">
          <mxGeometry relative="1" as="geometry" />
        </mxCell>
        <mxCell id="It4BeM9rfLrrCqX1omKw-54" value="" style="edgeStyle=orthogonalEdgeStyle;rounded=0;orthogonalLoop=1;jettySize=auto;html=1;" edge="1" parent="WIyWlLk6GJQsqaUBKTNV-1" source="It4BeM9rfLrrCqX1omKw-18" target="It4BeM9rfLrrCqX1omKw-53">
          <mxGeometry relative="1" as="geometry" />
        </mxCell>
        <mxCell id="It4BeM9rfLrrCqX1omKw-18" value="Identificación de las causas de insatisfacción" style="whiteSpace=wrap;html=1;rounded=1;" vertex="1" parent="WIyWlLk6GJQsqaUBKTNV-1">
          <mxGeometry x="33" y="600" width="150" height="60" as="geometry" />
        </mxCell>
        <mxCell id="It4BeM9rfLrrCqX1omKw-32" value="" style="edgeStyle=orthogonalEdgeStyle;rounded=0;orthogonalLoop=1;jettySize=auto;html=1;" edge="1" parent="WIyWlLk6GJQsqaUBKTNV-1" source="It4BeM9rfLrrCqX1omKw-19" target="It4BeM9rfLrrCqX1omKw-18">
          <mxGeometry relative="1" as="geometry" />
        </mxCell>
        <mxCell id="It4BeM9rfLrrCqX1omKw-36" style="edgeStyle=orthogonalEdgeStyle;rounded=0;orthogonalLoop=1;jettySize=auto;html=1;exitX=0;exitY=0.5;exitDx=0;exitDy=0;entryX=0;entryY=0.5;entryDx=0;entryDy=0;" edge="1" parent="WIyWlLk6GJQsqaUBKTNV-1" source="It4BeM9rfLrrCqX1omKw-19" target="It4BeM9rfLrrCqX1omKw-6">
          <mxGeometry relative="1" as="geometry" />
        </mxCell>
        <mxCell id="It4BeM9rfLrrCqX1omKw-37" value="NO" style="edgeLabel;html=1;align=center;verticalAlign=middle;resizable=0;points=[];" vertex="1" connectable="0" parent="It4BeM9rfLrrCqX1omKw-36">
          <mxGeometry x="-0.3416" y="1" relative="1" as="geometry">
            <mxPoint y="49" as="offset" />
          </mxGeometry>
        </mxCell>
        <mxCell id="It4BeM9rfLrrCqX1omKw-19" value="¿Es el mejor modelo?" style="rhombus;whiteSpace=wrap;html=1;" vertex="1" parent="WIyWlLk6GJQsqaUBKTNV-1">
          <mxGeometry x="48.5" y="465.5" width="119" height="110" as="geometry" />
        </mxCell>
        <mxCell id="It4BeM9rfLrrCqX1omKw-29" value="Segmentación por tópicos y sentimientos" style="rounded=1;whiteSpace=wrap;html=1;" vertex="1" parent="WIyWlLk6GJQsqaUBKTNV-1">
          <mxGeometry x="227" y="549.5" width="186" height="41" as="geometry" />
        </mxCell>
        <mxCell id="It4BeM9rfLrrCqX1omKw-30" value="Visualización y exploración" style="rounded=1;whiteSpace=wrap;html=1;" vertex="1" parent="WIyWlLk6GJQsqaUBKTNV-1">
          <mxGeometry x="227" y="609.5" width="186" height="41" as="geometry" />
        </mxCell>
        <mxCell id="It4BeM9rfLrrCqX1omKw-31" value="Correlación y comparación" style="rounded=1;whiteSpace=wrap;html=1;" vertex="1" parent="WIyWlLk6GJQsqaUBKTNV-1">
          <mxGeometry x="227" y="669.5" width="186" height="41" as="geometry" />
        </mxCell>
        <mxCell id="It4BeM9rfLrrCqX1omKw-53" value="Propuesta de mejoras para los servicios" style="whiteSpace=wrap;html=1;rounded=1;" vertex="1" parent="WIyWlLk6GJQsqaUBKTNV-1">
          <mxGeometry x="33" y="715" width="150" height="60" as="geometry" />
        </mxCell>
      </root>
    </mxGraphModel>
  </diagram>
</mxfile>
